  0
SECTION
  2
HEADER
  9
$ACADVER
  1
AC1015
  9
$ACADMAINTVER
 70
     6
  9
$DWGCODEPAGE
  3
ANSI_932
  9
$INSBASE
 10
0.0
 20
0.0
 30
0.0
  9
$EXTMIN
 10
10.0
 20
10.0
 30
0.0
  9
$EXTMAX
 10
220.0
 20
307.0
 30
0.0
  9
$LIMMIN
 10
10.0
 20
10.0
  9
$LIMMAX
 10
220.0
 20
307.0
  9
$ORTHOMODE
 70
     0
  9
$REGENMODE
 70
     1
  9
$FILLMODE
 70
     1
  9
$QTEXTMODE
 70
     0
  9
$MIRRTEXT
 70
     1
  9
$LTSCALE
 40
1.0
  9
$ATTMODE
 70
     1
  9
$TEXTSIZE
 40
4.16718
  9
$TRACEWID
 40
0.05
  9
$TEXTSTYLE
  7
MX_NOTE_STANDARD
  9
$CLAYER
  8
LY_1
  9
$CELTYPE
  6
CONTINUOUS
  9
$CECOLOR
 62
   256
  9
$CELTSCALE
 40
1.0
  9
$DISPSILH
 70
     0
  9
$DIMSCALE
 40
1.0
  9
$DIMASZ
 40
2.5
  9
$DIMEXO
 40
0.0
  9
$DIMDLI
 40
3.75
  9
$DIMRND
 40
0.0
  9
$DIMDLE
 40
0.0
  9
$DIMEXE
 40
2.54
  9
$DIMTP
 40
0.0
  9
$DIMTM
 40
0.0
  9
$DIMTXT
 40
2.54
  9
$DIMCEN
 40
2.5
  9
$DIMTSZ
 40
0.0
  9
$DIMTOL
 70
     0
  9
$DIMLIM
 70
     0
  9
$DIMTIH
 70
     0
  9
$DIMTOH
 70
     0
  9
$DIMSE1
 70
     0
  9
$DIMSE2
 70
     0
  9
$DIMTAD
 70
     1
  9
$DIMZIN
 70
     8
  9
$DIMBLK
  1

  9
$DIMASO
 70
     1
  9
$DIMSHO
 70
     1
  9
$DIMPOST
  1

  9
$DIMAPOST
  1

  9
$DIMALT
 70
     0
  9
$DIMALTD
 70
     4
  9
$DIMALTF
 40
0.03937
  9
$DIMLFAC
 40
1.0
  9
$DIMTOFL
 70
     1
  9
$DIMTVP
 40
0.0
  9
$DIMTIX
 70
     0
  9
$DIMSOXD
 70
     0
  9
$DIMSAH
 70
     1
  9
$DIMBLK1
  1
_OPEN30
  9
$DIMBLK2
  1
_OPEN30
  9
$DIMSTYLE
  2
MXDIMSTYLE
  9
$DIMCLRD
 70
     0
  9
$DIMCLRE
 70
     0
  9
$DIMCLRT
 70
     0
  9
$DIMTFAC
 40
1.0
  9
$DIMGAP
 40
0.64
  9
$DIMJUST
 70
     0
  9
$DIMSD1
 70
     0
  9
$DIMSD2
 70
     0
  9
$DIMTOLJ
 70
     0
  9
$DIMTZIN
 70
     0
  9
$DIMALTZ
 70
     0
  9
$DIMALTTZ
 70
     0
  9
$DIMUPT
 70
     0
  9
$DIMDEC
 70
     2
  9
$DIMTDEC
 70
     2
  9
$DIMALTU
 70
     2
  9
$DIMALTTD
 70
     4
  9
$DIMTXSTY
  7
MX_NOTE_STANDARD
  9
$DIMAUNIT
 70
     0
  9
$DIMADEC
 70
     0
  9
$DIMALTRND
 40
0.0
  9
$DIMAZIN
 70
     0
  9
$DIMDSEP
 70
    46
  9
$DIMATFIT
 70
     3
  9
$DIMFRAC
 70
     0
  9
$DIMLDRBLK
  1
_OPEN30
  9
$DIMLUNIT
 70
     2
  9
$DIMLWD
 70
    -2
  9
$DIMLWE
 70
    -2
  9
$DIMTMOVE
 70
     0
  9
$LUNITS
 70
     2
  9
$LUPREC
 70
     4
  9
$SKETCHINC
 40
0.1
  9
$FILLETRAD
 40
0.0
  9
$AUNITS
 70
     0
  9
$AUPREC
 70
     0
  9
$MENU
  1
acad
  9
$ELEVATION
 40
0.0
  9
$PELEVATION
 40
0.0
  9
$THICKNESS
 40
0.0
  9
$LIMCHECK
 70
     0
  9
$CHAMFERA
 40
0.0
  9
$CHAMFERB
 40
0.0
  9
$CHAMFERC
 40
0.0
  9
$CHAMFERD
 40
0.0
  9
$SKPOLY
 70
     0
  9
$TDCREATE
 40
2456071.640000000
  9
$TDUCREATE
 40
0.000000000
  9
$TDUPDATE
 40
2456071.640000000
  9
$TDUUPDATE
 40
0.000000000
  9
$TDINDWG
 40
0.0000000000
  9
$TDUSRTIMER
 40
0.0000000000
  9
$USRTIMER
 70
     1
  9
$ANGBASE
 50
0.0
  9
$ANGDIR
 70
     0
  9
$PDMODE
 70
     0
  9
$PDSIZE
 40
0.0
  9
$PLINEWID
 40
0.0
  9
$SPLFRAME
 70
     0
  9
$SPLINETYPE
 70
     6
  9
$SPLINESEGS
 70
     8
  9
$HANDSEED
  5
13C
  9
$SURFTAB1
 70
     6
  9
$SURFTAB2
 70
     6
  9
$SURFTYPE
 70
     6
  9
$SURFU
 70
     6
  9
$SURFV
 70
     6
  9
$UCSBASE
  2

  9
$UCSNAME
  2

  9
$UCSORG
 10
0.0
 20
0.0
 30
0.0
  9
$UCSXDIR
 10
1.0
 20
0.0
 30
0.0
  9
$UCSYDIR
 10
0.0
 20
1.0
 30
0.0
  9
$UCSORTHOREF
  2

  9
$UCSORTHOVIEW
 70
     0
  9
$UCSORGTOP
 10
0.0
 20
0.0
 30
0.0
  9
$UCSORGBOTTOM
 10
0.0
 20
0.0
 30
0.0
  9
$UCSORGLEFT
 10
0.0
 20
0.0
 30
0.0
  9
$UCSORGRIGHT
 10
0.0
 20
0.0
 30
0.0
  9
$UCSORGFRONT
 10
0.0
 20
0.0
 30
0.0
  9
$UCSORGBACK
 10
0.0
 20
0.0
 30
0.0
  9
$PUCSBASE
  2

  9
$PUCSNAME
  2

  9
$PUCSORG
 10
0.0
 20
0.0
 30
0.0
  9
$PUCSXDIR
 10
1.0
 20
0.0
 30
0.0
  9
$PUCSYDIR
 10
0.0
 20
1.0
 30
0.0
  9
$PUCSORTHOREF
  2

  9
$PUCSORTHOVIEW
 70
     0
  9
$PUCSORGTOP
 10
0.0
 20
0.0
 30
0.0
  9
$PUCSORGBOTTOM
 10
0.0
 20
0.0
 30
0.0
  9
$PUCSORGLEFT
 10
0.0
 20
0.0
 30
0.0
  9
$PUCSORGRIGHT
 10
0.0
 20
0.0
 30
0.0
  9
$PUCSORGFRONT
 10
0.0
 20
0.0
 30
0.0
  9
$PUCSORGBACK
 10
0.0
 20
0.0
 30
0.0
  9
$USERI1
 70
     0
  9
$USERI2
 70
     0
  9
$USERI3
 70
     0
  9
$USERI4
 70
     0
  9
$USERI5
 70
     0
  9
$USERR1
 40
0.0
  9
$USERR2
 40
0.0
  9
$USERR3
 40
0.0
  9
$USERR4
 40
0.0
  9
$USERR5
 40
0.0
  9
$WORLDVIEW
 70
     1
  9
$SHADEDGE
 70
     3
  9
$SHADEDIF
 70
    70
  9
$TILEMODE
 70
     1
  9
$MAXACTVP
 70
    16
  9
$PINSBASE
 10
0.0
 20
0.0
 30
0.0
  9
$PLIMCHECK
 70
     0
  9
$PEXTMIN
 10
1.000000E+20
 20
1.000000E+20
 30
1.000000E+20
  9
$PEXTMAX
 10
-1.000000E+20
 20
-1.000000E+20
 30
-1.000000E+20
  9
$PLIMMIN
 10
0.0
 20
0.0
  9
$PLIMMAX
 10
12.0
 20
9.0
  9
$UNITMODE
 70
     0
  9
$VISRETAIN
 70
     0
  9
$PLINEGEN
 70
     1
  9
$PSLTSCALE
 70
     0
  9
$TREEDEPTH
 70
  3020
  9
$CMLSTYLE
  2
Standard
  9
$CMLJUST
 70
     0
  9
$CMLSCALE
 40
1.0
  9
$PROXYGRAPHICS
 70
     0
  9
$MEASUREMENT
 70
     1
  9
$CELWEIGHT
370
     0
  9
$ENDCAPS
280
     0
  9
$JOINSTYLE
280
     0
  9
$LWDISPLAY
290
     0
  9
$INSUNITS
 70
     0
  9
$HYPERLINKBASE
  1

  9
$STYLESHEET
  1

  9
$XEDIT
290
     1
  9
$CEPSNTYPE
380
     0
  9
$PSTYLEMODE
290
     1
  9
$FINGERPRINTGUID
  2

  9
$VERSIONGUID
  2

  9
$EXTNAMES
290
     1
  9
$PSVPSCALE
 40
0.0
  0
ENDSEC
  0
SECTION
  2
CLASSES
  0
CLASS
  1
LWPOLYLINE
  2
AcDbPolyline
  3
AutoCAD 2000
 90
        0
280
     0
281
     1
  0
CLASS
  1
IMAGE
  2
AcDbRasterImage
  3
ISM
 90
      127
280
     0
281
     1
  0
CLASS
  1
OLE2FRAME
  2
AcDbOle2Frame
  3
AutoCAD 2000
 90
        0
280
     0
281
     1
  0
CLASS
  1
HATCH
  2
AcDbHatch
  3
AutoCAD 2000
 90
        0
280
     0
281
     1
  0
CLASS
  1
DICTIONARYVAR
  2
AcDbDictionaryVar
  3
AutoCAD 2000
 90
        0
280
     0
281
     0
  0
CLASS
  1
RASTERVARIABLES
  2
AcDbRasterVariables
  3
ISM
 90
        0
280
     0
281
     0
  0
CLASS
  1
IMAGEDEF
  2
AcDbRasterImageDef
  3
ISM
 90
        0
280
     0
281
     0
  0
CLASS
  1
IMAGEDEF_REACTOR
  2
AcDbRasterImageDefReactor
  3
ISM
 90
        1
280
     0
281
     0
  0
CLASS
  1
IDBUFFER
  2
AcDbIdBuffer
  3
AutoCAD 2000
 90
        0
280
     0
281
     0
  0
CLASS
  1
SPATIAL_FILTER
  2
AcDbSpatialFilter
  3
AutoCAD 2000
 90
        0
280
     0
281
     0
  0
CLASS
  1
XRECORD
  2
AcDbXrecord
  3
AutoCAD 2000
 90
        0
280
     0
281
     0
  0
CLASS
  1
SORTENTSTABLE
  2
AcDbSortentsTable
  3
AutoCAD 2000
 90
        0
280
     0
281
     0
  0
CLASS
  1
LAYER_INDEX
  2
AcDbLayerIndex
  3
AutoCAD 2000
 90
        0
280
     0
281
     0
  0
CLASS
  1
SPATIAL_INDEX
  2
AcDbSpatialIndex
  3
AutoCAD 2000
 90
        0
280
     0
281
     0
  0
CLASS
  1
OBJECT_PTR
  2
CAseDLPNTableRecord
  3
"ASE-LPNTableRecord"
 90
        1
280
     0
281
     0
  0
CLASS
  1
LAYOUT
  2
AcDbLayout
  3
AutoCAD 2000
 90
        0
280
     0
281
     0
  0
CLASS
  1
PLOTSETTINGS
  2
AcDbPlotSettings
  3
AutoCAD 2000
 90
        0
280
     0
281
     0
  0
CLASS
  1
ACDBDICTIONARYWDFLT
  2
AcDbDictionaryWithDefault
  3
AutoCAD 2000
 90
        0
280
     0
281
     0
  0
CLASS
  1
ACDBPLACEHOLDER
  2
AcDbPlaceHolder
  3
AutoCAD 2000
 90
        0
280
     0
281
     0
  0
ENDSEC
  0
SECTION
  2
TABLES
  0
TABLE
  2
VPORT
  5
7
100
AcDbSymbolTable
 70
     1
  0
VPORT
  5
15
100
AcDbSymbolTableRecord
100
AcDbViewportTableRecord
  2
*ACTIVE
 70
     0
 10
0.0
 20
0.0
 11
1.0
 21
1.0
 12
115.0
 22
158.5
 13
0.0
 23
0.0
 14
1.0
 24
1.0
 15
0.0
 25
0.0
 16
0.0
 26
0.0
 36
1.0
 17
0.0
 27
0.0
 37
0.0
 40
299.97
 41
1.732051
 42
50.0
 43
0.0
 44
0.0
 50
0.0
 51
0.0
 71
     0
 72
   100
 73
     1
 74
     1
 75
     0
 76
     0
 77
     0
 78
     0
281
     0
 65
     0
110
0.0
120
0.0
130
0.0
111
1.0
121
0.0
131
0.0
112
0.0
122
1.0
132
0.0
345
0
346
0
 79
     0
146
0.0
  0
ENDTAB
  0
TABLE
  2
LTYPE
  5
4
100
AcDbSymbolTable
 70
     4
  0
LTYPE
  5
11
100
AcDbSymbolTableRecord
100
AcDbLinetypeTableRecord
  2
BYBLOCK
 70
    64
  3

 72
    65
 73
     0
 40
0.0
  0
LTYPE
  5
12
100
AcDbSymbolTableRecord
100
AcDbLinetypeTableRecord
  2
BYLAYER
 70
    64
  3

 72
    65
 73
     0
 40
0.0
  0
LTYPE
  5
13
100
AcDbSymbolTableRecord
100
AcDbLinetypeTableRecord
  2
CONTINUOUS
 70
    64
  3
Solid line
 72
    65
 73
     0
 40
0.0
  0
LTYPE
  5
35
100
AcDbSymbolTableRecord
100
AcDbLinetypeTableRecord
  2
NON_PLOTING
 70
     0
  3
Solid line
 72
    65
 73
     0
 40
0.0
  0
ENDTAB
  0
TABLE
  2
LAYER
  5
2
100
AcDbSymbolTable
 70
     3
  0
LAYER
  5
14
100
AcDbSymbolTableRecord
100
AcDbLayerTableRecord
  2
0
 70
     0
 62
     7
  6
CONTINUOUS
290
     1
370
    -3
390
1D
  0
LAYER
  5
23
100
AcDbSymbolTableRecord
100
AcDbLayerTableRecord
  2
LY_1
 70
     0
 62
     7
  6
CONTINUOUS
290
     1
370
    -3
390
1D
  0
LAYER
  5
24
100
AcDbSymbolTableRecord
100
AcDbLayerTableRecord
  2
DEFPOINTS
 70
     0
 62
     7
  6
CONTINUOUS
290
     0
370
    -3
390
1D
  0
ENDTAB
  0
TABLE
  2
STYLE
  5
3
100
AcDbSymbolTable
 70
     1
  0
STYLE
  5
17
100
AcDbSymbolTableRecord
100
AcDbTextStyleTableRecord
  2
MX_NOTE_STANDARD
 70
     0
 40
0.0
 41
1.0
 50
0.0
 71
     0
 42
4.16718
  3
txt.shx
  4
extfont.shx
  0
ENDTAB
  0
TABLE
  2
VIEW
  5
5
100
AcDbSymbolTable
 70
     0
  0
ENDTAB
  0
TABLE
  2
UCS
  5
6
100
AcDbSymbolTable
 70
     0
  0
ENDTAB
  0
TABLE
  2
APPID
  5
8
100
AcDbSymbolTable
 70
     1
  0
APPID
  5
16
100
AcDbSymbolTableRecord
100
AcDbRegAppTableRecord
  2
ACAD
 70
     0
  0
ENDTAB
  0
TABLE
  2
DIMSTYLE
  5
9
100
AcDbSymbolTable
 70
     1
100
AcDbDimStyleTable
 71
     0
  0
DIMSTYLE
105
18
100
AcDbSymbolTableRecord
100
AcDbDimStyleTableRecord
  2
MXDIMSTYLE
 70
     0
  3

  4

 40
1.0
 41
2.5
 42
0.0
 43
3.75
 44
2.54
 45
0.0
 46
0.0
 47
0.0
 48
0.0
 71
     0
 72
     0
 73
     0
 74
     0
 75
     0
 76
     0
 77
     1
 78
     8
 79
     0
140
2.54
141
2.5
142
0.0
143
0.03937
144
1.0
145
0.0
146
1.0
147
0.64
148
0.0
170
     0
171
     4
172
     1
173
     1
174
     0
175
     0
176
     0
177
     0
178
     0
179
     0
271
     2
272
     2
273
     2
274
     4
275
     0
276
     0
277
     2
278
    46
279
     0
280
     0
281
     0
282
     0
283
     0
284
     0
285
     0
286
     0
288
     0
289
     3
340
17
341
25
342
0
343
25
344
25
371
    -2
372
    -2
  0
ENDTAB
  0
TABLE
  2
BLOCK_RECORD
  5
1
100
AcDbSymbolTable
 70
     1
  0
BLOCK_RECORD
  5
A
100
AcDbSymbolTableRecord
100
AcDbBlockTableRecord
  2
*MODEL_SPACE
340
20
  0
BLOCK_RECORD
  5
B
100
AcDbSymbolTableRecord
100
AcDbBlockTableRecord
  2
*PAPER_SPACE
340
21
  0
BLOCK_RECORD
  5
25
100
AcDbSymbolTableRecord
100
AcDbBlockTableRecord
  2
_OPEN30
340
0
  0
ENDTAB
  0
ENDSEC
  0
SECTION
  2
BLOCKS
  0
BLOCK
  5
D
100
AcDbEntity
  8
0
390
0
100
AcDbBlockBegin
  2
*MODEL_SPACE
 70
     0
 10
0.0
 20
0.0
 30
0.0
  3
*MODEL_SPACE
  1

  0
ENDBLK
  5
E
100
AcDbEntity
  8
0
390
0
100
AcDbBlockEnd
  0
BLOCK
  5
F
100
AcDbEntity
 67
     1
  8
0
390
0
100
AcDbBlockBegin
  2
*PAPER_SPACE
 70
     0
 10
0.0
 20
0.0
 30
0.0
  3
*PAPER_SPACE
  1

  0
ENDBLK
  5
10
100
AcDbEntity
 67
     1
  8
0
390
0
100
AcDbBlockEnd
  0
BLOCK
  5
26
100
AcDbEntity
  8
0
370
    -2
390
0
  6
ByBlock
 62
     0
100
AcDbBlockBegin
  2
_OPEN30
 70
     2
 10
0.0
 20
0.0
 30
0.0
  3
_OPEN30
  1

  0
LINE
  5
27
100
AcDbEntity
  8
0
370
    -2
390
0
  6
ByBlock
 62
     0
100
AcDbLine
 10
-1.0
 20
0.267949
 30
0.0
 11
0.0
 21
0.0
 31
0.0
  0
LINE
  5
28
100
AcDbEntity
  8
0
370
    -2
390
0
  6
ByBlock
 62
     0
100
AcDbLine
 10
0.0
 20
0.0
 30
0.0
 11
-1.0
 21
-0.267949
 31
0.0
  0
LINE
  5
29
100
AcDbEntity
  8
0
370
    -2
390
0
  6
ByBlock
 62
     0
100
AcDbLine
 10
0.0
 20
0.0
 30
0.0
 11
-1.0
 21
0.0
 31
0.0
  0
ENDBLK
  5
2A
100
AcDbEntity
  8
0
370
    -2
390
0
  6
ByBlock
 62
     0
100
AcDbBlockEnd
  0
ENDSEC
  0
SECTION
  2
ENTITIES
  0
LINE
  5
2B
100
AcDbEntity
  8
LY_1
390
0
  6
CONTINUOUS
 62
     3
100
AcDbLine
 10
21.5
 20
60.0
 30
0.0
 11
208.5
 21
60.0
 31
0.0
  0
LINE
  5
2C
100
AcDbEntity
  8
LY_1
390
0
  6
CONTINUOUS
 62
     3
100
AcDbLine
 10
21.5
 20
53.0
 30
0.0
 11
208.5
 21
53.0
 31
0.0
  0
LINE
  5
2D
100
AcDbEntity
  8
LY_1
390
0
  6
CONTINUOUS
 62
     3
100
AcDbLine
 10
21.5
 20
40.0
 30
0.0
 11
208.5
 21
40.0
 31
0.0
  0
LINE
  5
2E
100
AcDbEntity
  8
LY_1
390
0
  6
CONTINUOUS
 62
     3
100
AcDbLine
 10
142.5
 20
46.5
 30
0.0
 11
208.5
 21
46.5
 31
0.0
  0
LINE
  5
2F
100
AcDbEntity
  8
LY_1
390
0
  6
CONTINUOUS
 62
     3
100
AcDbLine
 10
175.5
 20
53.0
 30
0.0
 11
175.5
 21
46.5
 31
0.0
  0
LINE
  5
30
100
AcDbEntity
  8
LY_1
390
0
  6
CONTINUOUS
 62
     3
100
AcDbLine
 10
21.5
 20
21.0
 30
0.0
 11
208.5
 21
21.0
 31
0.0
  0
LINE
  5
31
100
AcDbEntity
  8
LY_1
390
0
  6
CONTINUOUS
 62
     3
100
AcDbLine
 10
208.5
 20
21.0
 30
0.0
 11
208.5
 21
296.0
 31
0.0
  0
LINE
  5
32
100
AcDbEntity
  8
LY_1
390
0
  6
CONTINUOUS
 62
     3
100
AcDbLine
 10
208.5
 20
296.0
 30
0.0
 11
21.5
 21
296.0
 31
0.0
  0
LINE
  5
33
100
AcDbEntity
  8
LY_1
390
0
  6
CONTINUOUS
 62
     3
100
AcDbLine
 10
21.5
 20
296.0
 30
0.0
 11
21.5
 21
21.0
 31
0.0
  0
LINE
  5
34
100
AcDbEntity
  8
LY_1
390
0
  6
CONTINUOUS
 62
     3
100
AcDbLine
 10
142.5
 20
60.0
 30
0.0
 11
142.5
 21
40.0
 31
0.0
  0
LINE
  5
36
100
AcDbEntity
  8
DEFPOINTS
390
0
  6
NON_PLOTING
 62
     3
100
AcDbLine
 10
220.0
 20
10.0
 30
0.0
 11
220.0
 21
307.0
 31
0.0
  0
LINE
  5
37
100
AcDbEntity
  8
DEFPOINTS
390
0
  6
NON_PLOTING
 62
     3
100
AcDbLine
 10
10.0
 20
10.0
 30
0.0
 11
220.0
 21
10.0
 31
0.0
  0
LINE
  5
38
100
AcDbEntity
  8
DEFPOINTS
390
0
  6
NON_PLOTING
 62
     3
100
AcDbLine
 10
10.0
 20
10.0
 30
0.0
 11
10.0
 21
307.0
 31
0.0
  0
LINE
  5
39
100
AcDbEntity
  8
DEFPOINTS
390
0
  6
NON_PLOTING
 62
     3
100
AcDbLine
 10
10.0
 20
307.0
 30
0.0
 11
220.0
 21
307.0
 31
0.0
  0
MTEXT
  5
3A
100
AcDbEntity
  8
LY_1
390
0
  6
CONTINUOUS
 62
     7
100
AcDbMText
 10
23.590987
 20
58.143908
 30
0.0
 40
4.0
 41
0.0
 71
     1
 72
     1
  1
\W0.746;\A1;Parts No. ADP51*1
 73
     1
 44
1.0
  0
MTEXT
  5
3B
100
AcDbEntity
  8
LY_1
390
0
  6
CONTINUOUS
 62
     7
100
AcDbMText
 10
23.5259
 20
51.518341
 30
0.0
 40
4.0
 41
0.0
 71
     1
 72
     1
  1
\W0.648;\A1;Name PS-A Pressure sensor
 73
     1
 44
1.0
  0
MTEXT
  5
3C
100
AcDbEntity
  8
LY_1
390
0
  6
CONTINUOUS
 62
     7
100
AcDbMText
 10
144.3698
 20
51.643908
 30
0.0
 40
4.0
 41
0.0
 71
     1
 72
     1
  1
\W0.749;\A1;Scale 1:1
 73
     1
 44
1.0
  0
MTEXT
  5
3D
100
AcDbEntity
  8
LY_1
390
0
  6
CONTINUOUS
 62
     7
100
AcDbMText
 10
177.126707
 20
51.643908
 30
0.0
 40
4.0
 41
0.0
 71
     1
 72
     1
  1
\W0.714;\A1;Unit mm
 73
     1
 44
1.0
  0
MTEXT
  5
3E
100
AcDbEntity
  8
LY_1
390
0
  6
CONTINUOUS
 62
     7
100
AcDbMText
 10
144.267952
 20
45.143908
 30
0.0
 40
4.0
 41
0.0
 71
     1
 72
     1
  1
\W0.596;\A1;Tolerance
 73
     1
 44
1.0
  0
LINE
  5
3F
100
AcDbEntity
  8
LY_1
390
0
  6
CONTINUOUS
 62
   110
100
AcDbLine
 10
176.003753
 20
42.878838
 30
0.0
 11
199.96732
 21
42.878838
 31
0.0
  0
MTEXT
  5
40
100
AcDbEntity
  8
LY_1
390
0
  6
CONTINUOUS
 62
   110
100
AcDbMText
 10
86.515594
 20
18.685844
 30
0.0
 40
3.24
 41
0.0
 71
     1
 72
     1
  1
\W0.716;\A1;(C)Panasonic Corporation 2012
 73
     1
 44
1.0
  0
MTEXT
  5
41
100
AcDbEntity
  8
LY_1
390
0
  6
CONTINUOUS
 62
   110
100
AcDbMText
 10
115.0
 20
30.5
 30
0.0
 40
4.4
 41
0.0
 71
     5
 72
     1
  1
\W0.713;\A1;Panasonic Corporation\PAutomation Controls Business Unit
 73
     1
 44
1.0
  0
MTEXT
  5
42
100
AcDbEntity
  8
LY_1
390
0
  6
CONTINUOUS
 62
     7
100
AcDbMText
 10
144.353006
 20
58.143908
 30
0.0
 40
4.0
 41
0.0
 71
     1
 72
     1
  1
\W0.724;\A1;Date Jan.1.2012
 73
     1
 44
1.0
  0
LINE
  5
43
100
AcDbEntity
  8
LY_1
390
0
  6
CONTINUOUS
 62
     3
100
AcDbLine
 10
74.829445
 20
184.8371
 30
0.0
 11
75.329445
 21
184.8371
 31
0.0
  0
LINE
  5
44
100
AcDbEntity
  8
LY_1
390
0
  6
CONTINUOUS
 62
     3
100
AcDbLine
 10
77.829444
 20
178.987098
 30
0.0
 11
77.829444
 21
183.387338
 31
0.0
  0
LINE
  5
45
100
AcDbEntity
  8
LY_1
390
0
  6
CONTINUOUS
 62
     3
100
AcDbLine
 10
77.329443
 20
178.987099
 30
0.0
 11
77.479444
 21
178.837098
 31
0.0
  0
LINE
  5
46
100
AcDbEntity
  8
LY_1
390
0
  6
CONTINUOUS
 62
     3
100
AcDbLine
 10
75.179447
 20
178.837098
 30
0.0
 11
75.329448
 21
178.987099
 31
0.0
  0
LINE
  5
47
100
AcDbEntity
  8
LY_1
390
0
  6
CONTINUOUS
 62
     3
100
AcDbLine
 10
74.82945
 20
178.987099
 30
0.0
 11
74.979447
 21
178.837102
 31
0.0
  0
LINE
  5
48
100
AcDbEntity
  8
LY_1
390
0
  6
CONTINUOUS
 62
     3
100
AcDbLine
 10
72.679446
 20
178.837098
 30
0.0
 11
72.829447
 21
178.9871
 31
0.0
  0
LINE
  5
49
100
AcDbEntity
  8
LY_1
390
0
  6
CONTINUOUS
 62
     3
100
AcDbLine
 10
72.329449
 20
178.987099
 30
0.0
 11
72.47945
 21
178.837098
 31
0.0
  0
LINE
  5
4A
100
AcDbEntity
  8
LY_1
390
0
  6
CONTINUOUS
 62
     3
100
AcDbLine
 10
77.899448
 20
183.387338
 30
0.0
 11
77.899448
 21
183.887341
 31
0.0
  0
LINE
  5
4B
100
AcDbEntity
  8
LY_1
390
0
  6
CONTINUOUS
 62
     3
100
AcDbLine
 10
77.259444
 20
183.387338
 30
0.0
 11
77.259444
 21
183.887341
 31
0.0
  0
LINE
  5
4C
100
AcDbEntity
  8
LY_1
390
0
  6
CONTINUOUS
 62
     3
100
AcDbLine
 10
75.399446
 20
183.387338
 30
0.0
 11
75.399446
 21
183.887341
 31
0.0
  0
LINE
  5
4D
100
AcDbEntity
  8
LY_1
390
0
  6
CONTINUOUS
 62
     3
100
AcDbLine
 10
74.759445
 20
183.387338
 30
0.0
 11
74.759445
 21
183.887341
 31
0.0
  0
LINE
  5
4E
100
AcDbEntity
  8
LY_1
390
0
  6
CONTINUOUS
 62
     3
100
AcDbLine
 10
77.829444
 20
183.887341
 30
0.0
 11
77.829444
 21
184.8371
 31
0.0
  0
LINE
  5
4F
100
AcDbEntity
  8
LY_1
390
0
  6
CONTINUOUS
 62
     3
100
AcDbLine
 10
77.259444
 20
183.887341
 30
0.0
 11
77.329444
 21
183.887341
 31
0.0
  0
LINE
  5
50
100
AcDbEntity
  8
LY_1
390
0
  6
CONTINUOUS
 62
     3
100
AcDbLine
 10
77.329444
 20
183.887341
 30
0.0
 11
77.329444
 21
184.8371
 31
0.0
  0
LINE
  5
51
100
AcDbEntity
  8
LY_1
390
0
  6
CONTINUOUS
 62
     3
100
AcDbLine
 10
74.759445
 20
183.887341
 30
0.0
 11
74.829445
 21
183.887341
 31
0.0
  0
LINE
  5
52
100
AcDbEntity
  8
LY_1
390
0
  6
CONTINUOUS
 62
     3
100
AcDbLine
 10
75.329445
 20
183.887341
 30
0.0
 11
75.329445
 21
184.8371
 31
0.0
  0
LINE
  5
53
100
AcDbEntity
  8
LY_1
390
0
  6
CONTINUOUS
 62
     3
100
AcDbLine
 10
74.829445
 20
183.887341
 30
0.0
 11
74.829445
 21
184.8371
 31
0.0
  0
LINE
  5
54
100
AcDbEntity
  8
LY_1
390
0
  6
CONTINUOUS
 62
     3
100
AcDbLine
 10
77.829444
 20
183.887341
 30
0.0
 11
77.899448
 21
183.887341
 31
0.0
  0
LINE
  5
55
100
AcDbEntity
  8
LY_1
390
0
  6
CONTINUOUS
 62
     3
100
AcDbLine
 10
75.329445
 20
183.887341
 30
0.0
 11
75.399446
 21
183.887341
 31
0.0
  0
LINE
  5
56
100
AcDbEntity
  8
LY_1
390
0
  6
CONTINUOUS
 62
     3
100
AcDbLine
 10
72.479445
 20
178.837099
 30
0.0
 11
72.679446
 21
178.837099
 31
0.0
  0
LINE
  5
57
100
AcDbEntity
  8
LY_1
390
0
  6
CONTINUOUS
 62
     3
100
AcDbLine
 10
74.979446
 20
178.837099
 30
0.0
 11
75.179445
 21
178.837099
 31
0.0
  0
LINE
  5
58
100
AcDbEntity
  8
LY_1
390
0
  6
CONTINUOUS
 62
     3
100
AcDbLine
 10
77.479445
 20
178.837099
 30
0.0
 11
77.679446
 21
178.837099
 31
0.0
  0
LINE
  5
59
100
AcDbEntity
  8
LY_1
390
0
  6
CONTINUOUS
 62
     3
100
AcDbLine
 10
77.329444
 20
184.8371
 30
0.0
 11
77.829444
 21
184.8371
 31
0.0
  0
LINE
  5
5A
100
AcDbEntity
  8
LY_1
390
0
  6
CONTINUOUS
 62
     3
100
AcDbLine
 10
74.829445
 20
178.987098
 30
0.0
 11
74.829445
 21
183.387338
 31
0.0
  0
LINE
  5
5B
100
AcDbEntity
  8
LY_1
390
0
  6
CONTINUOUS
 62
     3
100
AcDbLine
 10
75.329445
 20
178.987098
 30
0.0
 11
75.329445
 21
183.387338
 31
0.0
  0
LINE
  5
5C
100
AcDbEntity
  8
LY_1
390
0
  6
CONTINUOUS
 62
     3
100
AcDbLine
 10
77.329444
 20
178.987098
 30
0.0
 11
77.329444
 21
183.387338
 31
0.0
  0
LINE
  5
5D
100
AcDbEntity
  8
LY_1
390
0
  6
CONTINUOUS
 62
     3
100
AcDbLine
 10
148.625175
 20
178.871789
 30
0.0
 11
148.87279
 21
178.837339
 31
0.0
  0
LINE
  5
5E
100
AcDbEntity
  8
LY_1
390
0
  6
CONTINUOUS
 62
     3
100
AcDbLine
 10
157.872791
 20
178.837342
 30
0.0
 11
158.120406
 21
178.871793
 31
0.0
  0
LINE
  5
5F
100
AcDbEntity
  8
LY_1
390
0
  6
CONTINUOUS
 62
     3
100
AcDbLine
 10
148.87279
 20
178.837339
 30
0.0
 11
149.660794
 21
184.501119
 31
0.0
  0
LINE
  5
60
100
AcDbEntity
  8
LY_1
390
0
  6
CONTINUOUS
 62
     3
100
AcDbLine
 10
148.625175
 20
178.871789
 30
0.0
 11
149.413179
 21
184.53557
 31
0.0
  0
LINE
  5
61
100
AcDbEntity
  8
LY_1
390
0
  6
CONTINUOUS
 62
     3
100
AcDbLine
 10
157.85212
 20
178.985911
 30
0.0
 11
158.099735
 21
179.020362
 31
0.0
  0
LINE
  5
62
100
AcDbEntity
  8
LY_1
390
0
  6
CONTINUOUS
 62
     3
100
AcDbLine
 10
148.645845
 20
179.020358
 30
0.0
 11
148.893461
 21
178.985907
 31
0.0
  0
LINE
  5
63
100
AcDbEntity
  8
LY_1
390
0
  6
CONTINUOUS
 62
     3
100
AcDbLine
 10
77.679448
 20
178.837098
 30
0.0
 11
77.829449
 21
178.987099
 31
0.0
  0
LINE
  5
64
100
AcDbEntity
  8
LY_1
390
0
  6
CONTINUOUS
 62
     3
100
AcDbLine
 10
72.329445
 20
178.987098
 30
0.0
 11
72.329445
 21
183.387338
 31
0.0
  0
LINE
  5
65
100
AcDbEntity
  8
LY_1
390
0
  6
CONTINUOUS
 62
     3
100
AcDbLine
 10
72.829446
 20
178.987098
 30
0.0
 11
72.829446
 21
183.387338
 31
0.0
  0
LINE
  5
66
100
AcDbEntity
  8
LY_1
390
0
  6
CONTINUOUS
 62
     3
100
AcDbLine
 10
72.259444
 20
183.387338
 30
0.0
 11
72.259444
 21
183.887341
 31
0.0
  0
LINE
  5
67
100
AcDbEntity
  8
LY_1
390
0
  6
CONTINUOUS
 62
     3
100
AcDbLine
 10
72.899447
 20
183.387338
 30
0.0
 11
72.899447
 21
183.887341
 31
0.0
  0
LINE
  5
68
100
AcDbEntity
  8
LY_1
390
0
  6
CONTINUOUS
 62
     3
100
AcDbLine
 10
72.829446
 20
183.887341
 30
0.0
 11
72.829446
 21
184.8371
 31
0.0
  0
LINE
  5
69
100
AcDbEntity
  8
LY_1
390
0
  6
CONTINUOUS
 62
     3
100
AcDbLine
 10
72.329445
 20
183.887341
 30
0.0
 11
72.329445
 21
184.8371
 31
0.0
  0
LINE
  5
6A
100
AcDbEntity
  8
LY_1
390
0
  6
CONTINUOUS
 62
     3
100
AcDbLine
 10
72.259444
 20
183.887341
 30
0.0
 11
72.329445
 21
183.887341
 31
0.0
  0
LINE
  5
6B
100
AcDbEntity
  8
LY_1
390
0
  6
CONTINUOUS
 62
     3
100
AcDbLine
 10
72.829446
 20
183.887341
 30
0.0
 11
72.899447
 21
183.887341
 31
0.0
  0
LINE
  5
6C
100
AcDbEntity
  8
LY_1
390
0
  6
CONTINUOUS
 62
     3
100
AcDbLine
 10
72.329445
 20
184.8371
 30
0.0
 11
72.829446
 21
184.8371
 31
0.0
  0
LINE
  5
6D
100
AcDbEntity
  8
LY_1
390
0
  6
CONTINUOUS
 62
     3
100
AcDbLine
 10
157.872791
 20
178.837342
 30
0.0
 11
157.084787
 21
184.501124
 31
0.0
  0
LINE
  5
6E
100
AcDbEntity
  8
LY_1
390
0
  6
CONTINUOUS
 62
     3
100
AcDbLine
 10
158.120406
 20
178.871793
 30
0.0
 11
157.332402
 21
184.535574
 31
0.0
  0
LINE
  5
6F
100
AcDbEntity
  8
LY_1
390
0
  6
CONTINUOUS
 62
     3
100
AcDbLine
 10
74.829445
 20
242.640796
 30
0.0
 11
74.829445
 21
243.790795
 31
0.0
  0
LINE
  5
70
100
AcDbEntity
  8
LY_1
390
0
  6
CONTINUOUS
 62
     3
100
AcDbLine
 10
77.829444
 20
252.140797
 30
0.0
 11
77.329444
 21
252.140797
 31
0.0
  0
LINE
  5
71
100
AcDbEntity
  8
LY_1
390
0
  6
CONTINUOUS
 62
     3
100
AcDbLine
 10
72.329445
 20
242.640796
 30
0.0
 11
72.329445
 21
243.790795
 31
0.0
  0
LINE
  5
72
100
AcDbEntity
  8
LY_1
390
0
  6
CONTINUOUS
 62
     3
100
AcDbLine
 10
72.829446
 20
252.140797
 30
0.0
 11
72.329445
 21
252.140797
 31
0.0
  0
LINE
  5
73
100
AcDbEntity
  8
LY_1
390
0
  6
CONTINUOUS
 62
     3
100
AcDbLine
 10
72.829446
 20
242.640796
 30
0.0
 11
72.329445
 21
242.640796
 31
0.0
  0
LINE
  5
74
100
AcDbEntity
  8
LY_1
390
0
  6
CONTINUOUS
 62
     3
100
AcDbLine
 10
75.329445
 20
242.640796
 30
0.0
 11
74.829445
 21
242.640796
 31
0.0
  0
LINE
  5
75
100
AcDbEntity
  8
LY_1
390
0
  6
CONTINUOUS
 62
     3
100
AcDbLine
 10
77.829444
 20
252.140797
 30
0.0
 11
77.829444
 21
250.990795
 31
0.0
  0
LINE
  5
76
100
AcDbEntity
  8
LY_1
390
0
  6
CONTINUOUS
 62
     3
100
AcDbLine
 10
75.329445
 20
252.140797
 30
0.0
 11
75.329445
 21
250.990795
 31
0.0
  0
LINE
  5
77
100
AcDbEntity
  8
LY_1
390
0
  6
CONTINUOUS
 62
     3
100
AcDbLine
 10
77.329444
 20
252.140797
 30
0.0
 11
77.329444
 21
250.990795
 31
0.0
  0
LINE
  5
78
100
AcDbEntity
  8
LY_1
390
0
  6
CONTINUOUS
 62
     3
100
AcDbLine
 10
72.329445
 20
252.140797
 30
0.0
 11
72.329445
 21
250.990795
 31
0.0
  0
LINE
  5
79
100
AcDbEntity
  8
LY_1
390
0
  6
CONTINUOUS
 62
     3
100
AcDbLine
 10
72.829446
 20
252.140797
 30
0.0
 11
72.829446
 21
250.990795
 31
0.0
  0
LINE
  5
7A
100
AcDbEntity
  8
LY_1
390
0
  6
CONTINUOUS
 62
     3
100
AcDbLine
 10
72.829446
 20
242.640796
 30
0.0
 11
72.829446
 21
243.790795
 31
0.0
  0
LINE
  5
7B
100
AcDbEntity
  8
LY_1
390
0
  6
CONTINUOUS
 62
     3
100
AcDbLine
 10
77.829444
 20
242.640796
 30
0.0
 11
77.329444
 21
242.640796
 31
0.0
  0
LINE
  5
7C
100
AcDbEntity
  8
LY_1
390
0
  6
CONTINUOUS
 62
     3
100
AcDbLine
 10
74.829445
 20
252.140797
 30
0.0
 11
74.829445
 21
250.990795
 31
0.0
  0
LINE
  5
7D
100
AcDbEntity
  8
LY_1
390
0
  6
CONTINUOUS
 62
     3
100
AcDbLine
 10
75.329445
 20
242.640796
 30
0.0
 11
75.329445
 21
243.790795
 31
0.0
  0
LINE
  5
7E
100
AcDbEntity
  8
LY_1
390
0
  6
CONTINUOUS
 62
     3
100
AcDbLine
 10
75.329445
 20
252.140797
 30
0.0
 11
74.829445
 21
252.140797
 31
0.0
  0
LINE
  5
7F
100
AcDbEntity
  8
LY_1
390
0
  6
CONTINUOUS
 62
     3
100
AcDbLine
 10
77.829444
 20
242.640796
 30
0.0
 11
77.829444
 21
243.790795
 31
0.0
  0
LINE
  5
80
100
AcDbEntity
  8
LY_1
390
0
  6
CONTINUOUS
 62
     3
100
AcDbLine
 10
77.329444
 20
242.640796
 30
0.0
 11
77.329444
 21
243.790795
 31
0.0
  0
LINE
  5
81
100
AcDbEntity
  8
LY_1
390
0
  6
CONTINUOUS
 62
     3
100
AcDbLine
 10
71.779445
 20
183.387338
 30
0.0
 11
72.329445
 21
183.387338
 31
0.0
  0
LINE
  5
82
100
AcDbEntity
  8
LY_1
390
0
  6
CONTINUOUS
 62
     3
100
AcDbLine
 10
78.479445
 20
186.887338
 30
0.0
 11
75.079445
 21
186.887338
 31
0.0
  0
LINE
  5
83
100
AcDbEntity
  8
LY_1
390
0
  6
CONTINUOUS
 62
     3
100
AcDbLine
 10
75.329445
 20
183.387338
 30
0.0
 11
77.329444
 21
183.387338
 31
0.0
  0
LINE
  5
84
100
AcDbEntity
  8
LY_1
390
0
  6
CONTINUOUS
 62
     3
100
AcDbLine
 10
78.579445
 20
186.787338
 30
0.0
 11
78.579445
 21
183.587338
 31
0.0
  0
LINE
  5
85
100
AcDbEntity
  8
LY_1
390
0
  6
CONTINUOUS
 62
     3
100
AcDbLine
 10
71.579445
 20
186.787338
 30
0.0
 11
71.579445
 21
183.587338
 31
0.0
  0
LINE
  5
86
100
AcDbEntity
  8
LY_1
390
0
  6
CONTINUOUS
 62
     3
100
AcDbLine
 10
76.579445
 20
191.687338
 30
0.0
 11
76.579445
 21
187.287338
 31
0.0
  0
LINE
  5
87
100
AcDbEntity
  8
LY_1
390
0
  6
CONTINUOUS
 62
     3
100
AcDbLine
 10
149.872791
 20
183.387339
 30
0.0
 11
149.972791
 21
183.387339
 31
0.0
  0
LINE
  5
88
100
AcDbEntity
  8
LY_1
390
0
  6
CONTINUOUS
 62
     3
100
AcDbLine
 10
151.872791
 20
191.687339
 30
0.0
 11
151.872791
 21
187.287339
 31
0.0
  0
LINE
  5
89
100
AcDbEntity
  8
LY_1
390
0
  6
CONTINUOUS
 62
     3
100
AcDbLine
 10
153.372791
 20
186.887339
 30
0.0
 11
149.972791
 21
186.887339
 31
0.0
  0
LINE
  5
8A
100
AcDbEntity
  8
LY_1
390
0
  6
CONTINUOUS
 62
     3
100
AcDbLine
 10
154.672791
 20
191.887339
 30
0.0
 11
152.072791
 21
191.887339
 31
0.0
  0
LINE
  5
8B
100
AcDbEntity
  8
LY_1
390
0
  6
CONTINUOUS
 62
     3
100
AcDbLine
 10
156.772791
 20
183.387339
 30
0.0
 11
156.872791
 21
183.387339
 31
0.0
  0
LINE
  5
8C
100
AcDbEntity
  8
LY_1
390
0
  6
CONTINUOUS
 62
     3
100
AcDbLine
 10
153.672791
 20
186.887339
 30
0.0
 11
153.672791
 21
185.887339
 31
0.0
  0
LINE
  5
8D
100
AcDbEntity
  8
LY_1
390
0
  6
CONTINUOUS
 62
     3
100
AcDbLine
 10
153.072791
 20
186.887339
 30
0.0
 11
153.072791
 21
185.887339
 31
0.0
  0
LINE
  5
8E
100
AcDbEntity
  8
LY_1
390
0
  6
CONTINUOUS
 62
     3
100
AcDbLine
 10
153.672791
 20
185.887339
 30
0.0
 11
153.072791
 21
185.887339
 31
0.0
  0
LINE
  5
8F
100
AcDbEntity
  8
LY_1
390
0
  6
CONTINUOUS
 62
     3
100
AcDbLine
 10
149.772791
 20
185.087339
 30
0.0
 11
149.772791
 21
183.487339
 31
0.0
  0
LINE
  5
90
100
AcDbEntity
  8
LY_1
390
0
  6
CONTINUOUS
 62
     3
100
AcDbLine
 10
154.872791
 20
191.687339
 30
0.0
 11
154.872791
 21
187.287339
 31
0.0
  0
LINE
  5
91
100
AcDbEntity
  8
LY_1
390
0
  6
CONTINUOUS
 62
     3
100
AcDbLine
 10
156.872791
 20
185.087339
 30
0.0
 11
156.972791
 21
185.087339
 31
0.0
  0
LINE
  5
92
100
AcDbEntity
  8
LY_1
390
0
  6
CONTINUOUS
 62
     3
100
AcDbLine
 10
156.972791
 20
185.087339
 30
0.0
 11
156.972791
 21
183.487339
 31
0.0
  0
LINE
  5
93
100
AcDbEntity
  8
LY_1
390
0
  6
CONTINUOUS
 62
     3
100
AcDbLine
 10
149.872791
 20
186.787339
 30
0.0
 11
149.872791
 21
185.087339
 31
0.0
  0
LINE
  5
94
100
AcDbEntity
  8
LY_1
390
0
  6
CONTINUOUS
 62
     3
100
AcDbLine
 10
156.872791
 20
186.787339
 30
0.0
 11
156.872791
 21
185.087339
 31
0.0
  0
LINE
  5
95
100
AcDbEntity
  8
LY_1
390
0
  6
CONTINUOUS
 62
     3
100
AcDbLine
 10
149.872791
 20
183.387339
 30
0.0
 11
153.372791
 21
183.387339
 31
0.0
  0
LINE
  5
96
100
AcDbEntity
  8
LY_1
390
0
  6
CONTINUOUS
 62
     3
100
AcDbLine
 10
153.372791
 20
183.387339
 30
0.0
 11
156.772791
 21
183.387339
 31
0.0
  0
LINE
  5
97
100
AcDbEntity
  8
LY_1
390
0
  6
CONTINUOUS
 62
     3
100
AcDbLine
 10
156.772791
 20
186.887339
 30
0.0
 11
153.372791
 21
186.887339
 31
0.0
  0
LINE
  5
98
100
AcDbEntity
  8
LY_1
390
0
  6
CONTINUOUS
 62
     3
100
AcDbLine
 10
149.872791
 20
185.087339
 30
0.0
 11
149.772791
 21
185.087339
 31
0.0
  0
LINE
  5
99
100
AcDbEntity
  8
LY_1
390
0
  6
CONTINUOUS
 62
     3
100
AcDbLine
 10
78.579445
 20
250.290795
 30
0.0
 11
78.579445
 21
247.390795
 31
0.0
  0
LINE
  5
9A
100
AcDbEntity
  8
LY_1
390
0
  6
CONTINUOUS
 62
     3
100
AcDbLine
 10
71.579445
 20
250.290795
 30
0.0
 11
71.579445
 21
244.490795
 31
0.0
  0
LINE
  5
9B
100
AcDbEntity
  8
LY_1
390
0
  6
CONTINUOUS
 62
     3
100
AcDbLine
 10
77.879445
 20
243.890795
 30
0.0
 11
72.279445
 21
243.890795
 31
0.0
  0
LINE
  5
9C
100
AcDbEntity
  8
LY_1
390
0
  6
CONTINUOUS
 62
     3
100
AcDbLine
 10
77.829444
 20
183.387338
 30
0.0
 11
78.379445
 21
183.387338
 31
0.0
  0
LINE
  5
9D
100
AcDbEntity
  8
LY_1
390
0
  6
CONTINUOUS
 62
     3
100
AcDbLine
 10
77.879445
 20
250.890795
 30
0.0
 11
72.279445
 21
250.890795
 31
0.0
  0
LINE
  5
9E
100
AcDbEntity
  8
LY_1
390
0
  6
CONTINUOUS
 62
     3
100
AcDbLine
 10
77.879445
 20
250.990795
 30
0.0
 11
75.329445
 21
250.990795
 31
0.0
  0
LINE
  5
9F
100
AcDbEntity
  8
LY_1
390
0
  6
CONTINUOUS
 62
     3
100
AcDbLine
 10
77.879445
 20
243.790795
 30
0.0
 11
75.329445
 21
243.790795
 31
0.0
  0
LINE
  5
A0
100
AcDbEntity
  8
LY_1
390
0
  6
CONTINUOUS
 62
     3
100
AcDbLine
 10
72.929445
 20
243.790795
 30
0.0
 11
72.279445
 21
243.790795
 31
0.0
  0
LINE
  5
A1
100
AcDbEntity
  8
LY_1
390
0
  6
CONTINUOUS
 62
     3
100
AcDbLine
 10
75.329445
 20
250.990795
 30
0.0
 11
72.829445
 21
250.990795
 31
0.0
  0
LINE
  5
A2
100
AcDbEntity
  8
LY_1
390
0
  6
CONTINUOUS
 62
     3
100
AcDbLine
 10
78.579445
 20
247.390795
 30
0.0
 11
78.579445
 21
244.490795
 31
0.0
  0
LINE
  5
A3
100
AcDbEntity
  8
LY_1
390
0
  6
CONTINUOUS
 62
     3
100
AcDbLine
 10
72.929445
 20
250.990795
 30
0.0
 11
72.279445
 21
250.990795
 31
0.0
  0
LINE
  5
A4
100
AcDbEntity
  8
LY_1
390
0
  6
CONTINUOUS
 62
     3
100
AcDbLine
 10
75.329445
 20
243.790795
 30
0.0
 11
72.829445
 21
243.790795
 31
0.0
  0
LINE
  5
A5
100
AcDbEntity
  8
LY_1
390
0
  6
CONTINUOUS
 62
     3
100
AcDbLine
 10
71.579445
 20
185.087338
 30
0.0
 11
78.579445
 21
185.087338
 31
0.0
  0
LINE
  5
A6
100
AcDbEntity
  8
LY_1
390
0
  6
CONTINUOUS
 62
     3
100
AcDbLine
 10
73.579445
 20
191.687338
 30
0.0
 11
73.579445
 21
187.287338
 31
0.0
  0
LINE
  5
A7
100
AcDbEntity
  8
LY_1
390
0
  6
CONTINUOUS
 62
     3
100
AcDbLine
 10
75.079445
 20
186.887338
 30
0.0
 11
71.679445
 21
186.887338
 31
0.0
  0
LINE
  5
A8
100
AcDbEntity
  8
LY_1
390
0
  6
CONTINUOUS
 62
     3
100
AcDbLine
 10
76.379445
 20
191.887338
 30
0.0
 11
73.779445
 21
191.887338
 31
0.0
  0
LINE
  5
A9
100
AcDbEntity
  8
LY_1
390
0
  6
CONTINUOUS
 62
     3
100
AcDbLine
 10
72.829446
 20
183.387338
 30
0.0
 11
74.829445
 21
183.387338
 31
0.0
  0
LINE
  5
AA
100
AcDbEntity
  8
LY_1
390
0
  6
CONTINUOUS
 62
     3
100
AcDbLine
 10
75.179618
 20
110.316828
 30
0.0
 11
75.179618
 21
110.56683
 31
0.0
  0
LINE
  5
AB
100
AcDbEntity
  8
LY_1
390
0
  6
CONTINUOUS
 62
     3
100
AcDbLine
 10
74.979618
 20
110.316828
 30
0.0
 11
74.979618
 21
110.56683
 31
0.0
  0
LINE
  5
AC
100
AcDbEntity
  8
LY_1
390
0
  6
CONTINUOUS
 62
     3
100
AcDbLine
 10
77.479619
 20
110.316828
 30
0.0
 11
77.479619
 21
110.56683
 31
0.0
  0
LINE
  5
AD
100
AcDbEntity
  8
LY_1
390
0
  6
CONTINUOUS
 62
     3
100
AcDbLine
 10
77.679618
 20
110.316828
 30
0.0
 11
77.679618
 21
110.56683
 31
0.0
  0
LINE
  5
AE
100
AcDbEntity
  8
LY_1
390
0
  6
CONTINUOUS
 62
     3
100
AcDbLine
 10
72.479618
 20
110.316828
 30
0.0
 11
72.479618
 21
110.56683
 31
0.0
  0
LINE
  5
AF
100
AcDbEntity
  8
LY_1
390
0
  6
CONTINUOUS
 62
     3
100
AcDbLine
 10
72.679617
 20
110.316828
 30
0.0
 11
72.679617
 21
110.56683
 31
0.0
  0
LINE
  5
B0
100
AcDbEntity
  8
LY_1
390
0
  6
CONTINUOUS
 62
     3
100
AcDbLine
 10
72.679617
 20
119.816831
 30
0.0
 11
72.679617
 21
119.566829
 31
0.0
  0
LINE
  5
B1
100
AcDbEntity
  8
LY_1
390
0
  6
CONTINUOUS
 62
     3
100
AcDbLine
 10
72.479618
 20
119.816831
 30
0.0
 11
72.479618
 21
119.566829
 31
0.0
  0
LINE
  5
B2
100
AcDbEntity
  8
LY_1
390
0
  6
CONTINUOUS
 62
     3
100
AcDbLine
 10
77.679618
 20
119.816831
 30
0.0
 11
77.679618
 21
119.566829
 31
0.0
  0
LINE
  5
B3
100
AcDbEntity
  8
LY_1
390
0
  6
CONTINUOUS
 62
     3
100
AcDbLine
 10
77.479619
 20
119.816831
 30
0.0
 11
77.479619
 21
119.566829
 31
0.0
  0
LINE
  5
B4
100
AcDbEntity
  8
LY_1
390
0
  6
CONTINUOUS
 62
     3
100
AcDbLine
 10
74.979618
 20
119.816831
 30
0.0
 11
74.979618
 21
119.566829
 31
0.0
  0
LINE
  5
B5
100
AcDbEntity
  8
LY_1
390
0
  6
CONTINUOUS
 62
     3
100
AcDbLine
 10
75.179618
 20
119.816831
 30
0.0
 11
75.179618
 21
119.566829
 31
0.0
  0
LINE
  5
B6
100
AcDbEntity
  8
LY_1
390
0
  6
CONTINUOUS
 62
     3
100
AcDbLine
 10
77.829617
 20
119.566829
 30
0.0
 11
77.329617
 21
119.566829
 31
0.0
  0
LINE
  5
B7
100
AcDbEntity
  8
LY_1
390
0
  6
CONTINUOUS
 62
     3
100
AcDbLine
 10
75.329618
 20
119.566829
 30
0.0
 11
74.829618
 21
119.566829
 31
0.0
  0
LINE
  5
B8
100
AcDbEntity
  8
LY_1
390
0
  6
CONTINUOUS
 62
     3
100
AcDbLine
 10
72.829617
 20
119.566829
 30
0.0
 11
72.329617
 21
119.566829
 31
0.0
  0
LINE
  5
B9
100
AcDbEntity
  8
LY_1
390
0
  6
CONTINUOUS
 62
     3
100
AcDbLine
 10
77.829617
 20
110.56683
 30
0.0
 11
77.329617
 21
110.56683
 31
0.0
  0
LINE
  5
BA
100
AcDbEntity
  8
LY_1
390
0
  6
CONTINUOUS
 62
     3
100
AcDbLine
 10
75.329618
 20
110.56683
 30
0.0
 11
74.829618
 21
110.56683
 31
0.0
  0
LINE
  5
BB
100
AcDbEntity
  8
LY_1
390
0
  6
CONTINUOUS
 62
     3
100
AcDbLine
 10
72.829617
 20
119.816829
 30
0.0
 11
72.329617
 21
119.816829
 31
0.0
  0
LINE
  5
BC
100
AcDbEntity
  8
LY_1
390
0
  6
CONTINUOUS
 62
     3
100
AcDbLine
 10
72.829617
 20
110.56683
 30
0.0
 11
72.329617
 21
110.56683
 31
0.0
  0
LINE
  5
BD
100
AcDbEntity
  8
LY_1
390
0
  6
CONTINUOUS
 62
     3
100
AcDbLine
 10
75.329618
 20
119.816829
 30
0.0
 11
74.829618
 21
119.816829
 31
0.0
  0
LINE
  5
BE
100
AcDbEntity
  8
LY_1
390
0
  6
CONTINUOUS
 62
     3
100
AcDbLine
 10
72.829617
 20
110.316828
 30
0.0
 11
72.329617
 21
110.316828
 31
0.0
  0
LINE
  5
BF
100
AcDbEntity
  8
LY_1
390
0
  6
CONTINUOUS
 62
     3
100
AcDbLine
 10
75.329618
 20
110.316828
 30
0.0
 11
74.829618
 21
110.316828
 31
0.0
  0
LINE
  5
C0
100
AcDbEntity
  8
LY_1
390
0
  6
CONTINUOUS
 62
     3
100
AcDbLine
 10
72.829617
 20
110.316828
 30
0.0
 11
72.829617
 21
111.466828
 31
0.0
  0
LINE
  5
C1
100
AcDbEntity
  8
LY_1
390
0
  6
CONTINUOUS
 62
     3
100
AcDbLine
 10
72.329617
 20
110.316828
 30
0.0
 11
72.329617
 21
111.466828
 31
0.0
  0
LINE
  5
C2
100
AcDbEntity
  8
LY_1
390
0
  6
CONTINUOUS
 62
     3
100
AcDbLine
 10
77.329617
 20
110.316828
 30
0.0
 11
77.329617
 21
111.466828
 31
0.0
  0
LINE
  5
C3
100
AcDbEntity
  8
LY_1
390
0
  6
CONTINUOUS
 62
     3
100
AcDbLine
 10
74.829618
 20
110.316828
 30
0.0
 11
74.829618
 21
111.466828
 31
0.0
  0
LINE
  5
C4
100
AcDbEntity
  8
LY_1
390
0
  6
CONTINUOUS
 62
     3
100
AcDbLine
 10
75.329618
 20
110.316828
 30
0.0
 11
75.329618
 21
111.466828
 31
0.0
  0
LINE
  5
C5
100
AcDbEntity
  8
LY_1
390
0
  6
CONTINUOUS
 62
     3
100
AcDbLine
 10
77.829617
 20
119.816829
 30
0.0
 11
77.329617
 21
119.816829
 31
0.0
  0
LINE
  5
C6
100
AcDbEntity
  8
LY_1
390
0
  6
CONTINUOUS
 62
     3
100
AcDbLine
 10
77.829617
 20
110.316828
 30
0.0
 11
77.829617
 21
111.466828
 31
0.0
  0
LINE
  5
C7
100
AcDbEntity
  8
LY_1
390
0
  6
CONTINUOUS
 62
     3
100
AcDbLine
 10
72.329617
 20
119.816829
 30
0.0
 11
72.329617
 21
118.666829
 31
0.0
  0
LINE
  5
C8
100
AcDbEntity
  8
LY_1
390
0
  6
CONTINUOUS
 62
     3
100
AcDbLine
 10
72.829617
 20
119.816829
 30
0.0
 11
72.829617
 21
118.666829
 31
0.0
  0
LINE
  5
C9
100
AcDbEntity
  8
LY_1
390
0
  6
CONTINUOUS
 62
     3
100
AcDbLine
 10
74.829618
 20
119.816829
 30
0.0
 11
74.829618
 21
118.666829
 31
0.0
  0
LINE
  5
CA
100
AcDbEntity
  8
LY_1
390
0
  6
CONTINUOUS
 62
     3
100
AcDbLine
 10
77.329617
 20
119.816829
 30
0.0
 11
77.329617
 21
118.666829
 31
0.0
  0
LINE
  5
CB
100
AcDbEntity
  8
LY_1
390
0
  6
CONTINUOUS
 62
     3
100
AcDbLine
 10
75.329618
 20
119.816829
 30
0.0
 11
75.329618
 21
118.666829
 31
0.0
  0
LINE
  5
CC
100
AcDbEntity
  8
LY_1
390
0
  6
CONTINUOUS
 62
     3
100
AcDbLine
 10
77.829617
 20
119.816829
 30
0.0
 11
77.829617
 21
118.666829
 31
0.0
  0
LINE
  5
CD
100
AcDbEntity
  8
LY_1
390
0
  6
CONTINUOUS
 62
     3
100
AcDbLine
 10
77.829617
 20
110.316828
 30
0.0
 11
77.329617
 21
110.316828
 31
0.0
  0
LINE
  5
CE
100
AcDbEntity
  8
LY_1
390
0
  6
CONTINUOUS
 62
     3
100
AcDbLine
 10
77.129618
 20
118.666829
 30
0.0
 11
75.529618
 21
118.666829
 31
0.0
  0
LINE
  5
CF
100
AcDbEntity
  8
LY_1
390
0
  6
CONTINUOUS
 62
     3
100
AcDbLine
 10
75.079618
 20
111.916829
 30
0.0
 11
77.829618
 21
111.916829
 31
0.0
  0
LINE
  5
D0
100
AcDbEntity
  8
LY_1
390
0
  6
CONTINUOUS
 62
     3
100
AcDbLine
 10
75.079618
 20
118.666829
 30
0.0
 11
77.879618
 21
118.666829
 31
0.0
  0
LINE
  5
D1
100
AcDbEntity
  8
LY_1
390
0
  6
CONTINUOUS
 62
     3
100
AcDbLine
 10
72.279618
 20
118.666829
 30
0.0
 11
75.079618
 21
118.666829
 31
0.0
  0
LINE
  5
D2
100
AcDbEntity
  8
LY_1
390
0
  6
CONTINUOUS
 62
     3
100
AcDbLine
 10
71.579618
 20
117.966829
 30
0.0
 11
71.579618
 21
115.066829
 31
0.0
  0
LINE
  5
D3
100
AcDbEntity
  8
LY_1
390
0
  6
CONTINUOUS
 62
     3
100
AcDbLine
 10
72.279618
 20
111.466828
 30
0.0
 11
77.879618
 21
111.466828
 31
0.0
  0
LINE
  5
D4
100
AcDbEntity
  8
LY_1
390
0
  6
CONTINUOUS
 62
     3
100
AcDbLine
 10
71.579618
 20
114.266829
 30
0.0
 11
71.829618
 21
114.266829
 31
0.0
  0
LINE
  5
D5
100
AcDbEntity
  8
LY_1
390
0
  6
CONTINUOUS
 62
     3
100
AcDbLine
 10
75.079618
 20
118.216829
 30
0.0
 11
77.829618
 21
118.216829
 31
0.0
  0
LINE
  5
D6
100
AcDbEntity
  8
LY_1
390
0
  6
CONTINUOUS
 62
     3
100
AcDbLine
 10
71.579618
 20
112.166828
 30
0.0
 11
71.579618
 21
115.066829
 31
0.0
  0
LINE
  5
D7
100
AcDbEntity
  8
LY_1
390
0
  6
CONTINUOUS
 62
     3
100
AcDbLine
 10
72.329618
 20
118.216829
 30
0.0
 11
75.079618
 21
118.216829
 31
0.0
  0
LINE
  5
D8
100
AcDbEntity
  8
LY_1
390
0
  6
CONTINUOUS
 62
     3
100
AcDbLine
 10
72.329618
 20
111.916829
 30
0.0
 11
75.079618
 21
111.916829
 31
0.0
  0
LINE
  5
D9
100
AcDbEntity
  8
LY_1
390
0
  6
CONTINUOUS
 62
     3
100
AcDbLine
 10
72.029618
 20
112.216829
 30
0.0
 11
72.029618
 21
112.466829
 31
0.0
  0
LINE
  5
DA
100
AcDbEntity
  8
LY_1
390
0
  6
CONTINUOUS
 62
     3
100
AcDbLine
 10
71.579618
 20
117.566829
 30
0.0
 11
71.929618
 21
117.566829
 31
0.0
  0
LINE
  5
DB
100
AcDbEntity
  8
LY_1
390
0
  6
CONTINUOUS
 62
     3
100
AcDbLine
 10
71.579618
 20
112.566829
 30
0.0
 11
71.929618
 21
112.566829
 31
0.0
  0
LINE
  5
DC
100
AcDbEntity
  8
LY_1
390
0
  6
CONTINUOUS
 62
     3
100
AcDbLine
 10
72.029618
 20
117.916829
 30
0.0
 11
72.029618
 21
117.666829
 31
0.0
  0
LINE
  5
DD
100
AcDbEntity
  8
LY_1
390
0
  6
CONTINUOUS
 62
     3
100
AcDbLine
 10
78.129618
 20
117.916829
 30
0.0
 11
78.129618
 21
117.666829
 31
0.0
  0
LINE
  5
DE
100
AcDbEntity
  8
LY_1
390
0
  6
CONTINUOUS
 62
     3
100
AcDbLine
 10
78.229618
 20
117.566829
 30
0.0
 11
78.579618
 21
117.566829
 31
0.0
  0
LINE
  5
DF
100
AcDbEntity
  8
LY_1
390
0
  6
CONTINUOUS
 62
     3
100
AcDbLine
 10
78.129618
 20
112.216829
 30
0.0
 11
78.129618
 21
112.466829
 31
0.0
  0
LINE
  5
E0
100
AcDbEntity
  8
LY_1
390
0
  6
CONTINUOUS
 62
     3
100
AcDbLine
 10
78.229618
 20
112.566829
 30
0.0
 11
78.579618
 21
112.566829
 31
0.0
  0
LINE
  5
E1
100
AcDbEntity
  8
LY_1
390
0
  6
CONTINUOUS
 62
     3
100
AcDbLine
 10
71.579618
 20
115.866829
 30
0.0
 11
71.829618
 21
115.866829
 31
0.0
  0
LINE
  5
E2
100
AcDbEntity
  8
LY_1
390
0
  6
CONTINUOUS
 62
     3
100
AcDbLine
 10
78.579618
 20
112.166828
 30
0.0
 11
78.579618
 21
115.066829
 31
0.0
  0
LINE
  5
E3
100
AcDbEntity
  8
LY_1
390
0
  6
CONTINUOUS
 62
     3
100
AcDbLine
 10
78.579618
 20
117.966829
 30
0.0
 11
78.579618
 21
115.066829
 31
0.0
  0
LINE
  5
E4
100
AcDbEntity
  8
LY_1
390
0
  6
CONTINUOUS
 62
     3
100
AcDbLine
 10
72.479618
 20
112.066829
 30
0.0
 11
75.079618
 21
112.066829
 31
0.0
  0
LINE
  5
E5
100
AcDbEntity
  8
LY_1
390
0
  6
CONTINUOUS
 62
     3
100
AcDbLine
 10
72.479618
 20
118.066829
 30
0.0
 11
75.079618
 21
118.066829
 31
0.0
  0
LINE
  5
E6
100
AcDbEntity
  8
LY_1
390
0
  6
CONTINUOUS
 62
     3
100
AcDbLine
 10
72.179618
 20
117.766829
 30
0.0
 11
72.179618
 21
117.516829
 31
0.0
  0
LINE
  5
E7
100
AcDbEntity
  8
LY_1
390
0
  6
CONTINUOUS
 62
     3
100
AcDbLine
 10
77.979618
 20
117.766829
 30
0.0
 11
77.979618
 21
117.516829
 31
0.0
  0
LINE
  5
E8
100
AcDbEntity
  8
LY_1
390
0
  6
CONTINUOUS
 62
     3
100
AcDbLine
 10
72.179618
 20
112.616829
 30
0.0
 11
72.179618
 21
112.366829
 31
0.0
  0
LINE
  5
E9
100
AcDbEntity
  8
LY_1
390
0
  6
CONTINUOUS
 62
     3
100
AcDbLine
 10
77.979618
 20
112.616829
 30
0.0
 11
77.979618
 21
112.366829
 31
0.0
  0
LINE
  5
EA
100
AcDbEntity
  8
LY_1
390
0
  6
CONTINUOUS
 62
     3
100
AcDbLine
 10
71.929618
 20
117.416829
 30
0.0
 11
72.079618
 21
117.416829
 31
0.0
  0
LINE
  5
EB
100
AcDbEntity
  8
LY_1
390
0
  6
CONTINUOUS
 62
     3
100
AcDbLine
 10
71.929618
 20
112.716829
 30
0.0
 11
72.079618
 21
112.716829
 31
0.0
  0
LINE
  5
EC
100
AcDbEntity
  8
LY_1
390
0
  6
CONTINUOUS
 62
     3
100
AcDbLine
 10
78.079618
 20
112.716829
 30
0.0
 11
78.229618
 21
112.716829
 31
0.0
  0
LINE
  5
ED
100
AcDbEntity
  8
LY_1
390
0
  6
CONTINUOUS
 62
     3
100
AcDbLine
 10
78.329618
 20
117.316829
 30
0.0
 11
78.329618
 21
112.816829
 31
0.0
  0
LINE
  5
EE
100
AcDbEntity
  8
LY_1
390
0
  6
CONTINUOUS
 62
     3
100
AcDbLine
 10
71.829618
 20
117.316829
 30
0.0
 11
71.829618
 21
112.816829
 31
0.0
  0
LINE
  5
EF
100
AcDbEntity
  8
LY_1
390
0
  6
CONTINUOUS
 62
     3
100
AcDbLine
 10
78.079618
 20
117.416829
 30
0.0
 11
78.229618
 21
117.416829
 31
0.0
  0
LINE
  5
F0
100
AcDbEntity
  8
LY_1
390
0
  6
CONTINUOUS
 62
     3
100
AcDbLine
 10
75.079618
 20
112.066829
 30
0.0
 11
77.679618
 21
112.066829
 31
0.0
  0
LINE
  5
F1
100
AcDbEntity
  8
LY_1
390
0
  6
CONTINUOUS
 62
     3
100
AcDbLine
 10
75.079618
 20
118.066829
 30
0.0
 11
77.679618
 21
118.066829
 31
0.0
  0
ARC
  5
F2
100
AcDbEntity
  8
LY_1
390
0
  6
CONTINUOUS
 62
     3
100
AcDbCircle
 10
149.759842
 20
184.487341
 30
0.0
 40
0.35
100
AcDbArc
 50
90.000003
 51
172.079253
  0
ARC
  5
F3
100
AcDbEntity
  8
LY_1
390
0
  6
CONTINUOUS
 62
     3
100
AcDbCircle
 10
149.759842
 20
184.487341
 30
0.0
 40
0.1
100
AcDbArc
 50
90.000003
 51
172.079253
  0
ARC
  5
F4
100
AcDbEntity
  8
LY_1
390
0
  6
CONTINUOUS
 62
     3
100
AcDbCircle
 10
156.985742
 20
184.487341
 30
0.0
 40
0.35
100
AcDbArc
 50
7.920736
 51
90.000003
  0
ARC
  5
F5
100
AcDbEntity
  8
LY_1
390
0
  6
CONTINUOUS
 62
     3
100
AcDbCircle
 10
156.985742
 20
184.487341
 30
0.0
 40
0.1
100
AcDbArc
 50
7.920736
 51
90.000003
  0
ARC
  5
F6
100
AcDbEntity
  8
LY_1
390
0
  6
CONTINUOUS
 62
     3
100
AcDbCircle
 10
149.972791
 20
186.787339
 30
0.0
 40
0.1
100
AcDbArc
 50
90.0
 51
180.0
  0
ARC
  5
F7
100
AcDbEntity
  8
LY_1
390
0
  6
CONTINUOUS
 62
     3
100
AcDbCircle
 10
149.872791
 20
183.487339
 30
0.0
 40
0.1
100
AcDbArc
 50
180.0
 51
270.0
  0
ARC
  5
F8
100
AcDbEntity
  8
LY_1
390
0
  6
CONTINUOUS
 62
     3
100
AcDbCircle
 10
155.272791
 20
187.287339
 30
0.0
 40
0.4
100
AcDbArc
 50
180.0
 51
270.0
  0
ARC
  5
F9
100
AcDbEntity
  8
LY_1
390
0
  6
CONTINUOUS
 62
     3
100
AcDbCircle
 10
151.472791
 20
187.287339
 30
0.0
 40
0.4
100
AcDbArc
 50
270.0
 51
0.0
  0
ARC
  5
FA
100
AcDbEntity
  8
LY_1
390
0
  6
CONTINUOUS
 62
     3
100
AcDbCircle
 10
152.072791
 20
191.687339
 30
0.0
 40
0.2
100
AcDbArc
 50
90.0
 51
180.0
  0
ARC
  5
FB
100
AcDbEntity
  8
LY_1
390
0
  6
CONTINUOUS
 62
     3
100
AcDbCircle
 10
154.672791
 20
191.687339
 30
0.0
 40
0.2
100
AcDbArc
 50
0.0
 51
90.0
  0
ARC
  5
FC
100
AcDbEntity
  8
LY_1
390
0
  6
CONTINUOUS
 62
     3
100
AcDbCircle
 10
156.872791
 20
183.487339
 30
0.0
 40
0.1
100
AcDbArc
 50
270.0
 51
0.0
  0
ARC
  5
FD
100
AcDbEntity
  8
LY_1
390
0
  6
CONTINUOUS
 62
     3
100
AcDbCircle
 10
156.772791
 20
186.787339
 30
0.0
 40
0.1
100
AcDbArc
 50
360.0
 51
90.0
  0
ARC
  5
FE
100
AcDbEntity
  8
LY_1
390
0
  6
CONTINUOUS
 62
     3
100
AcDbCircle
 10
77.879445
 20
244.490795
 30
0.0
 40
0.7
100
AcDbArc
 50
270.0
 51
0.0
  0
ARC
  5
FF
100
AcDbEntity
  8
LY_1
390
0
  6
CONTINUOUS
 62
     3
100
AcDbCircle
 10
77.879445
 20
250.290795
 30
0.0
 40
0.7
100
AcDbArc
 50
0.0
 51
90.0
  0
ARC
  5
100
100
AcDbEntity
  8
LY_1
390
0
  6
CONTINUOUS
 62
     3
100
AcDbCircle
 10
72.279445
 20
244.490795
 30
0.0
 40
0.7
100
AcDbArc
 50
180.0
 51
270.0
  0
ARC
  5
101
100
AcDbEntity
  8
LY_1
390
0
  6
CONTINUOUS
 62
     3
100
AcDbCircle
 10
72.279445
 20
250.190795
 30
0.0
 40
0.7
100
AcDbArc
 50
90.0
 51
180.0
  0
CIRCLE
  5
102
100
AcDbEntity
  8
LY_1
390
0
  6
CONTINUOUS
 62
     3
100
AcDbCircle
 10
73.229445
 20
249.890795
 30
0.0
 40
0.5
  0
CIRCLE
  5
103
100
AcDbEntity
  8
LY_1
390
0
  6
CONTINUOUS
 62
     3
100
AcDbCircle
 10
76.779445
 20
244.890795
 30
0.0
 40
0.3
  0
CIRCLE
  5
104
100
AcDbEntity
  8
LY_1
390
0
  6
CONTINUOUS
 62
     3
100
AcDbCircle
 10
74.729445
 20
244.890795
 30
0.0
 40
0.3
  0
ARC
  5
105
100
AcDbEntity
  8
LY_1
390
0
  6
CONTINUOUS
 62
     3
100
AcDbCircle
 10
72.279445
 20
250.290795
 30
0.0
 40
0.7
100
AcDbArc
 50
90.0
 51
180.0
  0
CIRCLE
  5
106
100
AcDbEntity
  8
LY_1
390
0
  6
CONTINUOUS
 62
     3
100
AcDbCircle
 10
76.779445
 20
249.890795
 30
0.0
 40
0.3
  0
ARC
  5
107
100
AcDbEntity
  8
LY_1
390
0
  6
CONTINUOUS
 62
     3
100
AcDbCircle
 10
78.379445
 20
183.587338
 30
0.0
 40
0.2
100
AcDbArc
 50
270.0
 51
0.0
  0
ARC
  5
108
100
AcDbEntity
  8
LY_1
390
0
  6
CONTINUOUS
 62
     3
100
AcDbCircle
 10
71.779445
 20
183.587338
 30
0.0
 40
0.2
100
AcDbArc
 50
180.0
 51
270.0
  0
CIRCLE
  5
109
100
AcDbEntity
  8
LY_1
390
0
  6
CONTINUOUS
 62
     3
100
AcDbCircle
 10
73.129445
 20
244.890795
 30
0.0
 40
0.3
  0
CIRCLE
  5
10A
100
AcDbEntity
  8
LY_1
390
0
  6
CONTINUOUS
 62
     3
100
AcDbCircle
 10
74.729445
 20
244.890795
 30
0.0
 40
0.3
  0
CIRCLE
  5
10B
100
AcDbEntity
  8
LY_1
390
0
  6
CONTINUOUS
 62
     3
100
AcDbCircle
 10
75.079445
 20
249.890795
 30
0.0
 40
0.3
  0
CIRCLE
  5
10C
100
AcDbEntity
  8
LY_1
390
0
  6
CONTINUOUS
 62
     3
100
AcDbCircle
 10
75.079445
 20
247.390795
 30
0.0
 40
1.5
  0
CIRCLE
  5
10D
100
AcDbEntity
  8
LY_1
390
0
  6
CONTINUOUS
 62
     3
100
AcDbCircle
 10
75.079445
 20
247.390795
 30
0.0
 40
1.15
  0
CIRCLE
  5
10E
100
AcDbEntity
  8
LY_1
390
0
  6
CONTINUOUS
 62
     3
100
AcDbCircle
 10
76.779445
 20
249.890795
 30
0.0
 40
0.5
  0
CIRCLE
  5
10F
100
AcDbEntity
  8
LY_1
390
0
  6
CONTINUOUS
 62
     3
100
AcDbCircle
 10
75.079445
 20
249.890795
 30
0.0
 40
0.5
  0
CIRCLE
  5
110
100
AcDbEntity
  8
LY_1
390
0
  6
CONTINUOUS
 62
     3
100
AcDbCircle
 10
76.779445
 20
244.890795
 30
0.0
 40
0.5
  0
CIRCLE
  5
111
100
AcDbEntity
  8
LY_1
390
0
  6
CONTINUOUS
 62
     3
100
AcDbCircle
 10
73.129445
 20
244.890795
 30
0.0
 40
0.5
  0
CIRCLE
  5
112
100
AcDbEntity
  8
LY_1
390
0
  6
CONTINUOUS
 62
     3
100
AcDbCircle
 10
74.729445
 20
244.890795
 30
0.0
 40
0.5
  0
CIRCLE
  5
113
100
AcDbEntity
  8
LY_1
390
0
  6
CONTINUOUS
 62
     3
100
AcDbCircle
 10
76.779445
 20
244.890795
 30
0.0
 40
0.3
  0
CIRCLE
  5
114
100
AcDbEntity
  8
LY_1
390
0
  6
CONTINUOUS
 62
     3
100
AcDbCircle
 10
76.779445
 20
249.890795
 30
0.0
 40
0.5
  0
CIRCLE
  5
115
100
AcDbEntity
  8
LY_1
390
0
  6
CONTINUOUS
 62
     3
100
AcDbCircle
 10
76.779445
 20
249.890795
 30
0.0
 40
0.3
  0
CIRCLE
  5
116
100
AcDbEntity
  8
LY_1
390
0
  6
CONTINUOUS
 62
     3
100
AcDbCircle
 10
76.779445
 20
244.890795
 30
0.0
 40
0.5
  0
CIRCLE
  5
117
100
AcDbEntity
  8
LY_1
390
0
  6
CONTINUOUS
 62
     3
100
AcDbCircle
 10
76.779445
 20
244.890795
 30
0.0
 40
0.3
  0
CIRCLE
  5
118
100
AcDbEntity
  8
LY_1
390
0
  6
CONTINUOUS
 62
     3
100
AcDbCircle
 10
73.229445
 20
249.890795
 30
0.0
 40
0.3
  0
ARC
  5
119
100
AcDbEntity
  8
LY_1
390
0
  6
CONTINUOUS
 62
     3
100
AcDbCircle
 10
78.579445
 20
247.390795
 30
0.0
 40
0.3
100
AcDbArc
 50
90.0
 51
270.0
  0
ARC
  5
11A
100
AcDbEntity
  8
LY_1
390
0
  6
CONTINUOUS
 62
     3
100
AcDbCircle
 10
77.879445
 20
244.590795
 30
0.0
 40
0.7
100
AcDbArc
 50
270.0
 51
0.0
  0
ARC
  5
11B
100
AcDbEntity
  8
LY_1
390
0
  6
CONTINUOUS
 62
     3
100
AcDbCircle
 10
72.279445
 20
244.590795
 30
0.0
 40
0.7
100
AcDbArc
 50
180.0
 51
270.0
  0
ARC
  5
11C
100
AcDbEntity
  8
LY_1
390
0
  6
CONTINUOUS
 62
     3
100
AcDbCircle
 10
77.879445
 20
250.190795
 30
0.0
 40
0.7
100
AcDbArc
 50
0.0
 51
90.0
  0
CIRCLE
  5
11D
100
AcDbEntity
  8
LY_1
390
0
  6
CONTINUOUS
 62
     3
100
AcDbCircle
 10
75.079445
 20
247.390795
 30
0.0
 40
1.1
  0
ARC
  5
11E
100
AcDbEntity
  8
LY_1
390
0
  6
CONTINUOUS
 62
     3
100
AcDbCircle
 10
71.679445
 20
186.787338
 30
0.0
 40
0.1
100
AcDbArc
 50
90.0
 51
180.0
  0
ARC
  5
11F
100
AcDbEntity
  8
LY_1
390
0
  6
CONTINUOUS
 62
     3
100
AcDbCircle
 10
76.979445
 20
187.287338
 30
0.0
 40
0.4
100
AcDbArc
 50
180.0
 51
270.0
  0
ARC
  5
120
100
AcDbEntity
  8
LY_1
390
0
  6
CONTINUOUS
 62
     3
100
AcDbCircle
 10
73.179445
 20
187.287338
 30
0.0
 40
0.4
100
AcDbArc
 50
270.0
 51
0.0
  0
ARC
  5
121
100
AcDbEntity
  8
LY_1
390
0
  6
CONTINUOUS
 62
     3
100
AcDbCircle
 10
73.779445
 20
191.687338
 30
0.0
 40
0.2
100
AcDbArc
 50
90.0
 51
180.0
  0
ARC
  5
122
100
AcDbEntity
  8
LY_1
390
0
  6
CONTINUOUS
 62
     3
100
AcDbCircle
 10
76.379445
 20
191.687338
 30
0.0
 40
0.2
100
AcDbArc
 50
0.0
 51
90.0
  0
ARC
  5
123
100
AcDbEntity
  8
LY_1
390
0
  6
CONTINUOUS
 62
     3
100
AcDbCircle
 10
78.479445
 20
186.787338
 30
0.0
 40
0.1
100
AcDbArc
 50
360.0
 51
90.0
  0
ARC
  5
124
100
AcDbEntity
  8
LY_1
390
0
  6
CONTINUOUS
 62
     3
100
AcDbCircle
 10
77.879618
 20
112.166828
 30
0.0
 40
0.7
100
AcDbArc
 50
270.0
 51
0.0
  0
ARC
  5
125
100
AcDbEntity
  8
LY_1
390
0
  6
CONTINUOUS
 62
     3
100
AcDbCircle
 10
77.879618
 20
117.966829
 30
0.0
 40
0.7
100
AcDbArc
 50
0.0
 51
90.0
  0
ARC
  5
126
100
AcDbEntity
  8
LY_1
390
0
  6
CONTINUOUS
 62
     3
100
AcDbCircle
 10
72.279618
 20
112.166828
 30
0.0
 40
0.7
100
AcDbArc
 50
180.0
 51
270.0
  0
ARC
  5
127
100
AcDbEntity
  8
LY_1
390
0
  6
CONTINUOUS
 62
     3
100
AcDbCircle
 10
72.279618
 20
117.966829
 30
0.0
 40
0.7
100
AcDbArc
 50
90.0
 51
180.0
  0
ARC
  5
128
100
AcDbEntity
  8
LY_1
390
0
  6
CONTINUOUS
 62
     3
100
AcDbCircle
 10
72.329618
 20
117.916829
 30
0.0
 40
0.3
100
AcDbArc
 50
90.0
 51
180.0
  0
ARC
  5
129
100
AcDbEntity
  8
LY_1
390
0
  6
CONTINUOUS
 62
     3
100
AcDbCircle
 10
77.829618
 20
112.216829
 30
0.0
 40
0.3
100
AcDbArc
 50
270.0
 51
0.0
  0
ARC
  5
12A
100
AcDbEntity
  8
LY_1
390
0
  6
CONTINUOUS
 62
     3
100
AcDbCircle
 10
78.229618
 20
117.666829
 30
0.0
 40
0.1
100
AcDbArc
 50
180.0
 51
270.0
  0
ARC
  5
12B
100
AcDbEntity
  8
LY_1
390
0
  6
CONTINUOUS
 62
     3
100
AcDbCircle
 10
71.929618
 20
117.666829
 30
0.0
 40
0.1
100
AcDbArc
 50
270.0
 51
0.0
  0
ARC
  5
12C
100
AcDbEntity
  8
LY_1
390
0
  6
CONTINUOUS
 62
     3
100
AcDbCircle
 10
78.229618
 20
112.466829
 30
0.0
 40
0.1
100
AcDbArc
 50
90.0
 51
180.0
  0
ARC
  5
12D
100
AcDbEntity
  8
LY_1
390
0
  6
CONTINUOUS
 62
     3
100
AcDbCircle
 10
71.929618
 20
112.466829
 30
0.0
 40
0.1
100
AcDbArc
 50
0.0
 51
90.0
  0
ARC
  5
12E
100
AcDbEntity
  8
LY_1
390
0
  6
CONTINUOUS
 62
     3
100
AcDbCircle
 10
77.829618
 20
117.916829
 30
0.0
 40
0.3
100
AcDbArc
 50
0.0
 51
90.0
  0
ARC
  5
12F
100
AcDbEntity
  8
LY_1
390
0
  6
CONTINUOUS
 62
     3
100
AcDbCircle
 10
72.329618
 20
112.216829
 30
0.0
 40
0.3
100
AcDbArc
 50
180.0
 51
270.0
  0
ARC
  5
130
100
AcDbEntity
  8
LY_1
390
0
  6
CONTINUOUS
 62
     3
100
AcDbCircle
 10
71.929618
 20
117.316829
 30
0.0
 40
0.1
100
AcDbArc
 50
90.0
 51
180.0
  0
ARC
  5
131
100
AcDbEntity
  8
LY_1
390
0
  6
CONTINUOUS
 62
     3
100
AcDbCircle
 10
72.479618
 20
117.766829
 30
0.0
 40
0.3
100
AcDbArc
 50
90.0
 51
180.0
  0
ARC
  5
132
100
AcDbEntity
  8
LY_1
390
0
  6
CONTINUOUS
 62
     3
100
AcDbCircle
 10
78.229618
 20
117.316829
 30
0.0
 40
0.1
100
AcDbArc
 50
0.0
 51
90.0
  0
ARC
  5
133
100
AcDbEntity
  8
LY_1
390
0
  6
CONTINUOUS
 62
     3
100
AcDbCircle
 10
72.479618
 20
112.366829
 30
0.0
 40
0.3
100
AcDbArc
 50
180.0
 51
270.0
  0
ARC
  5
134
100
AcDbEntity
  8
LY_1
390
0
  6
CONTINUOUS
 62
     3
100
AcDbCircle
 10
77.679618
 20
112.366829
 30
0.0
 40
0.3
100
AcDbArc
 50
270.0
 51
0.0
  0
ARC
  5
135
100
AcDbEntity
  8
LY_1
390
0
  6
CONTINUOUS
 62
     3
100
AcDbCircle
 10
77.679618
 20
117.766829
 30
0.0
 40
0.3
100
AcDbArc
 50
0.0
 51
90.0
  0
ARC
  5
136
100
AcDbEntity
  8
LY_1
390
0
  6
CONTINUOUS
 62
     3
100
AcDbCircle
 10
78.079618
 20
112.616829
 30
0.0
 40
0.1
100
AcDbArc
 50
90.0
 51
180.0
  0
ARC
  5
137
100
AcDbEntity
  8
LY_1
390
0
  6
CONTINUOUS
 62
     3
100
AcDbCircle
 10
71.929618
 20
112.816829
 30
0.0
 40
0.1
100
AcDbArc
 50
180.0
 51
270.0
  0
ARC
  5
138
100
AcDbEntity
  8
LY_1
390
0
  6
CONTINUOUS
 62
     3
100
AcDbCircle
 10
72.079618
 20
117.516829
 30
0.0
 40
0.1
100
AcDbArc
 50
270.0
 51
0.0
  0
ARC
  5
139
100
AcDbEntity
  8
LY_1
390
0
  6
CONTINUOUS
 62
     3
100
AcDbCircle
 10
78.229618
 20
112.816829
 30
0.0
 40
0.1
100
AcDbArc
 50
270.0
 51
0.0
  0
ARC
  5
13A
100
AcDbEntity
  8
LY_1
390
0
  6
CONTINUOUS
 62
     3
100
AcDbCircle
 10
78.079618
 20
117.516829
 30
0.0
 40
0.1
100
AcDbArc
 50
180.0
 51
270.0
  0
ARC
  5
13B
100
AcDbEntity
  8
LY_1
390
0
  6
CONTINUOUS
 62
     3
100
AcDbCircle
 10
72.079618
 20
112.616829
 30
0.0
 40
0.1
100
AcDbArc
 50
0.0
 51
90.0
  0
ENDSEC
  0
SECTION
  2
OBJECTS
  0
DICTIONARY
  5
19
100
AcDbDictionary
280
     0
281
     1
  3
ACAD_GROUP
350
1A
  3
ACAD_MLINESTYLE
350
1B
  3
ACAD_LAYOUT
350
1E
  3
ACAD_PLOTSETTINGS
350
22
  3
ACAD_PLOTSTYLENAME
350
1F
  0
DICTIONARY
  5
1A
102
{ACAD_REACTORS
330
19
102
}
100
AcDbDictionary
280
     0
281
     1
  0
DICTIONARY
  5
1B
102
{ACAD_REACTORS
330
19
102
}
100
AcDbDictionary
280
     0
281
     1
  3
Standard
350
1C
  0
MLINESTYLE
  5
1C
102
{ACAD_REACTORS
330
1B
102
}
100
AcDbMlineStyle
  2
Standard
 70
     0
  3

 62
     0
 51
90.0
 52
90.0
 71
     2
 49
0.5
 62
   256
  6
ByLayer
 49
-0.5
 62
   256
  6
ByLayer
  0
ACDBDICTIONARYWDFLT
  5
1F
102
{ACAD_REACTORS
330
19
102
}
100
AcDbDictionary
281
     1
  3
Normal
350
1D
100
AcDbDictionaryWithDefault
340
1D
  0
ACDBPLACEHOLDER
  5
1D
102
{ACAD_REACTORS
330
1F
102
}
  0
LAYOUT
  5
20
102
{ACAD_REACTORS
330
1E
102
}
100
AcDbPlotSettings
  1

  2

  4

  6

 40
0.0
 41
0.0
 42
0.0
 43
0.0
 44
0.0
 45
0.0
 46
0.0
 47
0.0
 48
0.0
 49
0.0
140
0.0
141
0.0
142
1.0
143
1.0
 70
  1024
 72
     0
 73
     0
 74
     0
  7

 75
     0
147
1.0
148
0.0
149
0.0
100
AcDbLayout
  1
Model
 70
     0
 71
     0
 10
0.0
 20
0.0
 11
0.0
 21
0.0
 12
0.0
 22
0.0
 32
0.0
 14
0.0
 24
0.0
 34
0.0
 15
0.0
 25
0.0
 35
0.0
146
0.0
 13
0.0
 23
0.0
 33
0.0
 16
0.0
 26
0.0
 36
0.0
 17
0.0
 27
0.0
 37
0.0
 76
     0
330
A
331
0
345
0
346
0
  0
LAYOUT
  5
21
102
{ACAD_REACTORS
330
1E
102
}
100
AcDbPlotSettings
  1

  2

  4

  6

 40
0.0
 41
0.0
 42
0.0
 43
0.0
 44
0.0
 45
0.0
 46
0.0
 47
0.0
 48
0.0
 49
0.0
140
0.0
141
0.0
142
1.0
143
1.0
 70
     0
 72
     0
 73
     0
 74
     0
  7

 75
     0
147
1.0
148
0.0
149
0.0
100
AcDbLayout
  1
Layout1
 70
     0
 71
     0
 10
0.0
 20
0.0
 11
0.0
 21
0.0
 12
0.0
 22
0.0
 32
0.0
 14
0.0
 24
0.0
 34
0.0
 15
0.0
 25
0.0
 35
0.0
146
0.0
 13
0.0
 23
0.0
 33
0.0
 16
0.0
 26
0.0
 36
0.0
 17
0.0
 27
0.0
 37
0.0
 76
     0
330
B
331
0
345
0
346
0
  0
DICTIONARY
  5
1E
102
{ACAD_REACTORS
330
19
102
}
100
AcDbDictionary
280
     0
281
     1
  3
Layout1
350
21
  3
Model
350
20
  0
DICTIONARY
  5
22
102
{ACAD_REACTORS
330
19
102
}
100
AcDbDictionary
280
     0
281
     1
  0
ENDSEC
  0
EOF
